HIERARCHY
ROOT joint_Root
{
	OFFSET 0.0 0.0 0.0
	CHANNELS 6 Xposition Yposition Zposition Zrotation Xrotation Yrotation 
	JOINT Hips
	{
		OFFSET -17.1583 93.1646 452.98
		CHANNELS 6 Xposition Yposition Zposition Zrotation Xrotation Yrotation 
		JOINT Spine
		{
			OFFSET 15.7357 0.0 0.0
			CHANNELS 6 Xposition Yposition Zposition Zrotation Xrotation Yrotation 
			JOINT Chest
			{
				OFFSET 8.98455 -0.406207 0.0
				CHANNELS 6 Xposition Yposition Zposition Zrotation Xrotation Yrotation 
				JOINT Neck
				{
					OFFSET 16.3773 0.0 0.0
					CHANNELS 6 Xposition Yposition Zposition Zrotation Xrotation Yrotation 
					JOINT Head
					{
						OFFSET 6.45672 0.0 0.0
						CHANNELS 6 Xposition Yposition Zposition Zrotation Xrotation Yrotation 
						End Site
						{
							OFFSET 0.0 0.0 0.0
						}
					}
				}
				JOINT Shoulder_L
				{
					OFFSET 12.9942 -0.242716 4.98039
					CHANNELS 6 Xposition Yposition Zposition Zrotation Xrotation Yrotation 
					JOINT UpperArm_L
					{
						OFFSET 5.34809 0.0 0.0
						CHANNELS 6 Xposition Yposition Zposition Zrotation Xrotation Yrotation 
						JOINT LowerArm_L
						{
							OFFSET 24.3286 1.87007e-05 0.0
							CHANNELS 6 Xposition Yposition Zposition Zrotation Xrotation Yrotation 
							JOINT Hand_L
							{
								OFFSET 22.2916 0.0 0.0
								CHANNELS 6 Xposition Yposition Zposition Zrotation Xrotation Yrotation 
								End Site
								{
									OFFSET 0.0 0.0 0.0
								}
							}
						}
					}
				}
				JOINT Shoulder_R
				{
					OFFSET 12.9945 -0.242716 -4.98039
					CHANNELS 6 Xposition Yposition Zposition Zrotation Xrotation Yrotation 
					JOINT UpperArm_R
					{
						OFFSET -5.34813 0.0 0.0
						CHANNELS 6 Xposition Yposition Zposition Zrotation Xrotation Yrotation 
						JOINT LowerArm_R
						{
							OFFSET -24.3289 0.000322201 0.0
							CHANNELS 6 Xposition Yposition Zposition Zrotation Xrotation Yrotation 
							JOINT Hand_R
							{
								OFFSET -22.2915 -0.000108084 0.0
								CHANNELS 6 Xposition Yposition Zposition Zrotation Xrotation Yrotation 
								End Site
								{
									OFFSET 0.0 0.0 0.0
								}
							}
						}
					}
				}
			}
		}
		JOINT UpperLeg_L
		{
			OFFSET -2.19248 -6.46944 0.0
			CHANNELS 6 Xposition Yposition Zposition Zrotation Xrotation Yrotation 
			JOINT LowerLeg_L
			{
				OFFSET 39.0811 0.0 -1.23785e-05
				CHANNELS 6 Xposition Yposition Zposition Zrotation Xrotation Yrotation 
				JOINT Foot_L
				{
					OFFSET 40.9854 0.0 -1.26872e-05
					CHANNELS 6 Xposition Yposition Zposition Zrotation Xrotation Yrotation 
					JOINT Toes_L
					{
						OFFSET 11.7543 0.0 0.0
						CHANNELS 6 Xposition Yposition Zposition Zrotation Xrotation Yrotation 
						End Site
						{
							OFFSET 0.0 0.0 0.0
						}
					}
				}
			}
		}
		JOINT UpperLeg_R
		{
			OFFSET -2.19251 6.46944 0.0
			CHANNELS 6 Xposition Yposition Zposition Zrotation Xrotation Yrotation 
			JOINT LowerLeg_R
			{
				OFFSET -39.0811 -0.00228153 -0.0401928
				CHANNELS 6 Xposition Yposition Zposition Zrotation Xrotation Yrotation 
				JOINT Foot_R
				{
					OFFSET -40.9854 0.0 0.0
					CHANNELS 6 Xposition Yposition Zposition Zrotation Xrotation Yrotation 
					JOINT Toes_R
					{
						OFFSET -11.7543 0.0 0.0
						CHANNELS 6 Xposition Yposition Zposition Zrotation Xrotation Yrotation 
						End Site
						{
							OFFSET 0.0 0.0 0.0
						}
					}
				}
			}
		}
	}
}
MOTION
Frames:	5
Frame Time:	0.0333333
0.000000 0.000000 0.000000 0.000000 0.000000 -0.000000 -1.855610 93.155300 0.163379 88.005700 0.698126 -0.982068 15.735700 0.000005 -0.000001 92.778500 87.082300 -90.914500 8.984550 -0.406207 -0.000000 -1.936810 0.125045 3.729350 16.377300 -0.000001 -0.000001 -3.734000 2.437720 -3.444980 6.456720 -0.000001 -0.000000 -1.883710 2.035870 -3.753540 12.994200 -0.242716 4.980390 -92.360900 7.272630 -71.960100 5.348090 -0.000007 -0.000001 -67.760500 5.757300 -5.974240 24.328600 0.000019 0.000005 2.097430 31.323500 -4.031090 22.291600 -0.000001 0.000005 -17.190600 5.127050 4.502850 12.994500 -0.242716 -4.980390 89.445700 1.881200 -73.578100 -5.348130 -0.000001 -0.000004 -73.991700 7.761900 -3.396720 -24.328900 0.000322 -0.000009 -0.559130 -14.331100 -2.256610 -22.291500 -0.000108 -0.000004 -4.301260 5.227820 2.045190 -2.192480 -6.469440 -0.000000 -171.985000 -7.262130 -2.150570 39.081100 -0.000007 -0.000012 -0.012344 0.050075 13.847600 40.985400 -0.000006 -0.000013 -1.899290 16.665300 -68.564400 11.754300 -0.000000 0.000003 -0.000900 0.181610 -9.209910 -2.192510 6.469440 -0.000001 178.205000 7.441160 179.953000 -39.081100 -0.002282 -0.040193 0.021658 -0.093065 11.137000 -40.985400 0.000008 0.000006 -4.946130 4.576090 -67.768600 -11.754300 -0.000006 -0.000006 -0.010553 0.275389 -5.383920
0.000000 0.000000 0.000000 0.000000 0.000000 -0.000000 -1.795980 93.205500 0.518159 87.948700 0.412368 -1.995250 15.735700 0.000005 -0.000001 92.837300 87.713800 -91.017500 8.984550 -0.406207 -0.000000 -3.197480 0.052215 3.641710 16.377300 -0.000001 -0.000001 -4.881520 2.471850 -3.303510 6.456720 -0.000001 -0.000000 -2.074390 2.279310 -3.591420 12.994200 -0.242716 4.980390 -92.283100 6.750450 -71.264100 5.348090 -0.000007 -0.000001 -63.250900 -5.111330 -6.632670 24.328600 0.000019 0.000005 0.800807 33.528300 -1.449730 22.291600 -0.000001 0.000005 -21.408700 5.045760 6.347700 12.994500 -0.242716 -4.980390 89.741000 0.860647 -73.245800 -5.348130 -0.000001 -0.000004 -72.427400 -2.587300 -4.367190 -24.328900 0.000322 -0.000009 -0.001925 -14.280400 -0.000080 -22.291500 -0.000108 -0.000004 -9.420820 5.094720 5.281360 -2.192480 -6.469440 -0.000000 -172.098000 -7.278940 -2.427050 39.081100 -0.000007 -0.000012 -0.012298 0.053286 12.995200 40.985400 -0.000006 -0.000013 -1.989790 16.228300 -68.634500 11.754300 -0.000000 0.000003 -0.001818 0.194048 -8.704300 -2.192510 6.469440 -0.000001 178.197000 7.417580 179.710000 -39.081100 -0.002282 -0.040193 0.012518 -0.052316 9.951470 -40.985400 0.000008 0.000006 -5.899020 4.929230 -67.134000 -11.754300 -0.000006 -0.000006 -0.011650 0.283246 -5.062320
0.000000 0.000000 0.000000 0.000000 0.000000 -0.000000 -1.696930 93.248500 0.921247 87.933700 0.049102 -2.971010 15.735700 0.000005 -0.000001 94.714500 88.353300 -92.988300 8.984550 -0.406207 -0.000000 -4.482700 0.086058 3.458050 16.377300 -0.000001 -0.000001 -6.102790 2.502730 -3.044650 6.456720 -0.000001 -0.000000 -2.339460 2.510090 -3.288870 12.994200 -0.242716 4.980390 -92.106000 5.933440 -70.417300 5.348090 -0.000007 -0.000001 -57.246300 -14.479300 -7.148420 24.328600 0.000019 0.000005 0.477651 34.308200 -0.847288 22.291600 -0.000001 0.000005 -23.297200 4.964700 8.059810 12.994500 -0.242716 -4.980390 90.048500 -0.156082 -72.738800 -5.348130 -0.000001 -0.000004 -68.938700 -13.427700 -4.813140 -24.328900 0.000322 -0.000009 -0.001104 -11.446200 -0.000066 -22.291500 -0.000108 -0.000004 -13.512100 4.920600 8.985880 -2.192480 -6.469440 -0.000000 -172.288000 -7.141020 -2.597690 39.081100 -0.000007 -0.000012 -0.010813 0.050572 12.068300 40.985400 -0.000006 -0.000013 -2.241570 15.595900 -68.465100 11.754300 -0.000000 0.000003 -0.002114 0.197761 -8.553300 -2.192510 6.469440 -0.000001 178.098000 7.278430 179.617000 -39.081100 -0.002282 -0.040193 0.006842 -0.023203 8.581190 -40.985400 0.000008 0.000006 -6.988880 5.242190 -66.299700 -11.754300 -0.000006 -0.000006 -0.011275 0.280600 -5.170640
0.000000 0.000000 0.000000 0.000000 0.000000 -0.000000 -1.585050 93.271900 1.404860 87.988700 -0.069051 -3.685470 15.735700 0.000005 -0.000001 101.428000 88.941500 -99.876300 8.984550 -0.406207 -0.000000 -5.692300 0.236763 3.119250 16.377300 -0.000001 -0.000001 -7.312010 2.406370 -2.706340 6.456720 -0.000001 -0.000000 -2.533030 2.474370 -2.787080 12.994200 -0.242716 4.980390 -91.732000 4.594480 -69.316700 5.348090 -0.000007 -0.000001 -51.078800 -24.189500 -8.633810 24.328600 0.000019 0.000005 0.295530 34.301600 -0.524328 22.291600 -0.000001 0.000005 -20.363100 4.868020 9.990160 12.994500 -0.242716 -4.980390 90.277200 -0.853479 -72.012100 -5.348130 -0.000001 -0.000004 -63.124900 -23.788100 -4.196760 -24.328900 0.000322 -0.000009 -0.001035 -9.292070 -0.000055 -22.291500 -0.000108 -0.000004 -14.253500 4.755730 12.138800 -2.192480 -6.469440 -0.000000 -172.394000 -6.920590 -2.630750 39.081100 -0.000007 -0.000012 -0.018284 0.091429 11.308500 40.985400 -0.000006 -0.000013 -3.192320 15.350400 -67.957900 11.754300 -0.000000 0.000003 -0.002419 0.201479 -8.402080 -2.192510 6.469440 -0.000001 177.889000 7.328360 179.924000 -39.081100 -0.002282 -0.040193 0.004536 -0.009518 7.142950 -40.985400 0.000008 0.000006 -8.090370 5.467360 -65.594200 -11.754300 -0.000006 -0.000006 -0.011633 0.283127 -5.067160
0.000000 0.000000 0.000000 0.000000 0.000000 -0.000000 -1.492770 93.234400 2.007950 88.013000 -0.015549 -4.079140 15.735700 0.000005 -0.000001 119.624000 89.442400 -118.202000 8.984550 -0.406207 -0.000000 -6.799680 0.369634 2.870250 16.377300 -0.000001 -0.000001 -8.210840 2.251660 -2.419270 6.456720 -0.000001 -0.000000 -2.719450 2.363290 -2.517410 12.994200 -0.242716 4.980390 -91.163800 2.927770 -68.308100 5.348090 -0.000007 -0.000001 -45.335600 -33.868200 -11.006800 24.328600 0.000019 0.000005 0.147696 33.246400 -0.269107 22.291600 -0.000001 0.000005 -14.086300 4.745970 12.282800 12.994500 -0.242716 -4.980390 90.666500 -1.938290 -71.022000 -5.348130 -0.000001 -0.000004 -56.312500 -33.718800 -3.955430 -24.328900 0.000322 -0.000009 -0.001132 -10.703300 -0.000062 -22.291500 -0.000108 -0.000004 -8.846870 4.732830 12.551000 -2.192480 -6.469440 -0.000000 -172.444000 -6.863060 -2.476000 39.081100 -0.000007 -0.000012 -0.020666 0.106440 10.987200 40.985400 -0.000006 -0.000013 -3.498970 15.355000 -67.955300 11.754300 -0.000000 0.000003 -0.002611 0.203752 -8.309600 -2.192510 6.469440 -0.000001 177.709000 7.510100 -179.568000 -39.081100 -0.002282 -0.040193 0.004140 -0.007357 6.166120 -40.985400 0.000008 0.000006 -8.891290 5.702560 -65.214500 -11.754300 -0.000006 -0.000006 -0.011729 0.283799 -5.039680
